<svg width="45" height="45" viewBox="0 0 45 45" fill="none" xmlns="http://www.w3.org/2000/svg">
<rect x="1.07812" y="1.14062" width="43" height="43" rx="11.5" fill="white"/>
<path d="M18.6781 21.341C18.6781 19.9051 19.8422 18.741 21.2781 18.741H29.0781C30.5141 18.741 31.6782 19.9051 31.6782 21.341V29.141C31.6782 30.577 30.5141 31.741 29.0781 31.741H21.2781C19.8422 31.741 18.6781 30.577 18.6781 29.141V21.341Z" fill="#3A3A3A"/>
<path d="M16.0781 13.541C14.6422 13.541 13.4781 14.7051 13.4781 16.141V23.941C13.4781 25.377 14.6422 26.541 16.0781 26.541L16.0781 16.141H26.4782C26.4782 14.7051 25.3141 13.541 23.8781 13.541H16.0781Z" fill="#3A3A3A"/>
<rect x="1.07812" y="1.14062" width="43" height="43" rx="11.5" stroke="#93D5FE"/>
</svg>
